name rise42.5664peak47.7979fall81.9185.mot
datacolumns 19
datarows 29
range 5.96497800000000 6.01164200000000
endheader
time	ground_force1_vx	ground_force1_vy	ground_force1_vz	ground_force1_px	ground_force1_py	ground_force1_pz	ground_force2_vx	ground_force2_vy	ground_force2_vz	ground_force2_px	ground_force2_py	ground_force2_pz	ground_torque1_x	ground_torque1_y	ground_torque1_z	ground_torque2_x	ground_torque2_y	ground_torque2_z	
5.96497800000000	-2.13616800000000	40.10977600000000	-10.15680600000000	0.25942000000000	0.00000000000000	0.06369000000000	-58.36117200000000	798.68882699999995	-54.18284900000000	0.07351200000000	0.00000000000000	-0.10803100000000	0.00000000000000	-6.39484800000000	0.00000000000000	0.00000000000000	-18.31671500000000	0.00000000000000	
5.96664100000000	-2.26317300000000	46.86816800000000	-11.44902300000000	0.26305700000000	0.00000000000000	0.06465300000000	-58.85218600000000	796.14257199999997	-53.88263700000000	0.07278000000000	0.00000000000000	-0.10792800000000	0.00000000000000	-7.25984500000000	0.00000000000000	0.00000000000000	-18.29942000000000	0.00000000000000	
5.96831200000000	-2.32469700000000	53.67455000000000	-12.63315000000000	0.26644700000000	0.00000000000000	0.06553300000000	-59.34602200000000	793.45275100000003	-53.55683000000000	0.07205500000000	0.00000000000000	-0.10781900000000	0.00000000000000	-8.06674400000000	0.00000000000000	0.00000000000000	-18.28203000000000	0.00000000000000	
5.96998000000000	-2.31323500000000	60.43855000000000	-13.68233300000000	0.26962900000000	0.00000000000000	0.06634300000000	-59.84235900000000	790.61788899999999	-53.20521200000000	0.07133600000000	0.00000000000000	-0.10770400000000	0.00000000000000	-8.79760300000000	0.00000000000000	0.00000000000000	-18.26451600000000	0.00000000000000	
5.97164100000000	-2.22414700000000	67.09289900000000	-14.57854700000000	0.27263200000000	0.00000000000000	0.06709300000000	-60.34083300000000	787.63654799999995	-52.82760500000000	0.07062400000000	0.00000000000000	-0.10758200000000	0.00000000000000	-9.43995800000000	0.00000000000000	0.00000000000000	-18.24684300000000	0.00000000000000	
5.97331200000000	-2.05558700000000	73.59538400000000	-15.31274200000000	0.27548000000000	0.00000000000000	0.06779100000000	-60.84103600000000	784.50732500000004	-52.42387200000000	0.06992100000000	0.00000000000000	-0.10745400000000	0.00000000000000	-9.98702600000000	0.00000000000000	0.00000000000000	-18.22896700000000	0.00000000000000	
5.97497700000000	-1.80822900000000	79.92842899999999	-15.88423500000000	0.27819400000000	0.00000000000000	0.06844300000000	-61.34251500000000	781.22885699999995	-51.99391800000000	0.06922600000000	0.00000000000000	-0.10732000000000	0.00000000000000	-10.43740700000000	0.00000000000000	0.00000000000000	-18.21083800000000	0.00000000000000	
5.97664600000000	-1.48483700000000	86.09670699999999	-16.29952200000000	0.28079000000000	0.00000000000000	0.06905500000000	-61.84477200000000	777.79982099999995	-51.53769000000000	0.06854000000000	0.00000000000000	-0.10717800000000	0.00000000000000	-10.79440000000000	0.00000000000000	0.00000000000000	-18.19239500000000	0.00000000000000	
5.97830900000000	-1.08973600000000	92.12335200000000	-16.57070100000000	0.28327900000000	0.00000000000000	0.06963200000000	-62.34725600000000	774.21893799999998	-51.05517800000000	0.06786400000000	0.00000000000000	-0.10702900000000	0.00000000000000	-11.06504200000000	0.00000000000000	0.00000000000000	-18.17356700000000	0.00000000000000	
5.97997200000000	-0.62826100000000	98.04529700000001	-16.71371300000000	0.28567200000000	0.00000000000000	0.07017700000000	-62.84937000000000	770.48497799999996	-50.54641900000000	0.06719900000000	0.00000000000000	-0.10687400000000	0.00000000000000	-11.25900700000000	0.00000000000000	0.00000000000000	-18.15427500000000	0.00000000000000	
5.98164100000000	-0.10622100000000	103.90830300000000	-16.74657800000000	0.28797900000000	0.00000000000000	0.07069500000000	-63.35046400000000	766.59675800000002	-50.01149200000000	0.06654500000000	0.00000000000000	-0.10671100000000	0.00000000000000	-11.38748300000000	0.00000000000000	0.00000000000000	-18.13443000000000	0.00000000000000	
5.98330600000000	0.47058100000000	109.76212400000000	-16.68776700000000	0.29020400000000	0.00000000000000	0.07118900000000	-63.84983500000000	762.55315199999995	-49.45052600000000	0.06590300000000	0.00000000000000	-0.10654000000000	0.00000000000000	-11.46210200000000	0.00000000000000	0.00000000000000	-18.11393200000000	0.00000000000000	
5.98497600000000	1.09673600000000	115.65616900000001	-16.55481200000000	0.29235500000000	0.00000000000000	0.07166000000000	-64.34672600000000	758.35309400000006	-48.86369600000000	0.06527300000000	0.00000000000000	-0.10636300000000	0.00000000000000	-11.49403100000000	0.00000000000000	0.00000000000000	-18.09267200000000	0.00000000000000	
5.98664200000000	1.76751400000000	121.63592400000000	-16.36323400000000	0.29443500000000	0.00000000000000	0.07211100000000	-64.84032600000000	753.99557700000003	-48.25122500000000	0.06465600000000	0.00000000000000	-0.10617800000000	0.00000000000000	-11.49324000000000	0.00000000000000	0.00000000000000	-18.07052900000000	0.00000000000000	
5.98831100000000	2.47904300000000	127.74027300000000	-16.12580900000000	0.29644700000000	0.00000000000000	0.07254400000000	-65.32976900000000	749.47966499999995	-47.61338700000000	0.06405100000000	0.00000000000000	-0.10598500000000	0.00000000000000	-11.46799000000000	0.00000000000000	0.00000000000000	-18.04737200000000	0.00000000000000	
5.98997700000000	3.22838600000000	133.99976000000001	-15.85217300000000	0.29839500000000	0.00000000000000	0.07296100000000	-65.81413300000000	744.80449399999998	-46.95050300000000	0.06345900000000	0.00000000000000	-0.10578500000000	0.00000000000000	-11.42454200000000	0.00000000000000	0.00000000000000	-18.02306000000000	0.00000000000000	
5.99164100000000	4.01352700000000	140.43576500000000	-15.54872400000000	0.30028000000000	0.00000000000000	0.07336300000000	-66.29244100000000	739.96928000000003	-46.26294800000000	0.06288100000000	0.00000000000000	-0.10557700000000	0.00000000000000	-11.36705900000000	0.00000000000000	0.00000000000000	-17.99744100000000	0.00000000000000	
5.99331300000000	4.83328600000000	147.06047899999999	-15.21879900000000	0.30210400000000	0.00000000000000	0.07375100000000	-66.76365800000001	734.97332300000005	-45.55114500000000	0.06231600000000	0.00000000000000	-0.10536100000000	0.00000000000000	-11.29769100000000	0.00000000000000	0.00000000000000	-17.97035400000000	0.00000000000000	
5.99497500000000	5.68717800000000	153.87754200000001	-14.86303300000000	0.30386800000000	0.00000000000000	0.07412600000000	-67.22669800000000	729.81601799999999	-44.81557100000000	0.06176500000000	0.00000000000000	-0.10513800000000	0.00000000000000	-11.21679100000000	0.00000000000000	0.00000000000000	-17.94162500000000	0.00000000000000	
5.99664500000000	6.57524100000000	160.88317000000001	-14.47986400000000	0.30557300000000	0.00000000000000	0.07449100000000	-67.68041599999999	724.49685499999998	-44.05675200000000	0.06122700000000	0.00000000000000	-0.10490700000000	0.00000000000000	-11.12323100000000	0.00000000000000	0.00000000000000	-17.91107300000000	0.00000000000000	
5.99831000000000	7.49785200000000	168.06759700000001	-14.06610900000000	0.30721800000000	0.00000000000000	0.07484400000000	-68.12361600000000	719.01543900000001	-43.27526800000000	0.06070200000000	0.00000000000000	-0.10466900000000	0.00000000000000	-11.01476800000000	0.00000000000000	0.00000000000000	-17.87850600000000	0.00000000000000	
5.99997600000000	8.45554200000000	175.41666599999999	-13.61755300000000	0.30880500000000	0.00000000000000	0.07518800000000	-68.55504900000000	713.37148500000001	-42.47175100000000	0.06019100000000	0.00000000000000	-0.10442300000000	0.00000000000000	-10.88843300000000	0.00000000000000	0.00000000000000	-17.84372400000000	0.00000000000000	
6.00164100000000	9.44882600000000	182.91342599999999	-13.12951700000000	0.31033200000000	0.00000000000000	0.07552300000000	-68.97341500000000	707.56484000000000	-41.64688300000000	0.05969300000000	0.00000000000000	-0.10416900000000	0.00000000000000	-10.74090500000000	0.00000000000000	0.00000000000000	-17.80651700000000	0.00000000000000	
6.00330800000000	10.47806600000000	190.53961300000000	-12.59734600000000	0.31180100000000	0.00000000000000	0.07585000000000	-69.37736599999999	701.59548400000006	-40.80139700000000	0.05920700000000	0.00000000000000	-0.10390800000000	0.00000000000000	-10.56884600000000	0.00000000000000	0.00000000000000	-17.76666800000000	0.00000000000000	
6.00497200000000	11.54335400000000	198.27693199999999	-12.01682400000000	0.31320900000000	0.00000000000000	0.07616800000000	-69.76550600000000	695.46354599999995	-39.93607700000000	0.05873400000000	0.00000000000000	-0.10364000000000	0.00000000000000	-10.36917500000000	0.00000000000000	0.00000000000000	-17.72395200000000	0.00000000000000	
6.00664200000000	12.64444000000000	206.10808000000000	-11.38447400000000	0.31455800000000	0.00000000000000	0.07647900000000	-70.13639600000000	689.16931099999999	-39.05175800000000	0.05827200000000	0.00000000000000	-0.10336400000000	0.00000000000000	-10.13928600000000	0.00000000000000	0.00000000000000	-17.67813800000000	0.00000000000000	
6.00831400000000	13.78068300000000	214.01749200000000	-10.69775600000000	0.31584600000000	0.00000000000000	0.07678300000000	-70.48855500000001	682.71323400000006	-38.14932000000000	0.05782200000000	0.00000000000000	-0.10308100000000	0.00000000000000	-9.87718500000000	0.00000000000000	0.00000000000000	-17.62898800000000	0.00000000000000	
6.00997900000000	14.95104200000000	221.99180200000001	-9.95517500000000	0.31707200000000	0.00000000000000	0.07708000000000	-70.82046300000000	676.09594700000002	-37.22969400000000	0.05738200000000	0.00000000000000	-0.10279100000000	0.00000000000000	-9.58157100000000	0.00000000000000	0.00000000000000	-17.57626000000000	0.00000000000000	
6.01164200000000	16.15408500000000	230.02005600000001	-9.15628400000000	0.31823700000000	0.00000000000000	0.07737100000000	-71.13056700000000	669.31827099999998	-36.29385500000000	0.05695100000000	0.00000000000000	-0.10249500000000	0.00000000000000	-9.25184900000000	0.00000000000000	0.00000000000000	-17.51970600000000	0.00000000000000	
